<svg width="154" height="160" viewBox="0 0 154 160" fill="none" xmlns="http://www.w3.org/2000/svg">
<path d="M33.9697 0L117.208 0.0412104C117.551 2.93079 117.549 10.316 117.115 13.1398C114.567 13.4074 109.843 13.2725 107.131 13.2685L89.1372 13.2528L61.5166 13.2443C57.4573 13.2388 51.8181 13.4222 47.9453 13.2003C48.441 27.0711 47.5058 41.1791 48.3035 55.0584C48.8521 64.6052 59.8487 74.9129 68.2155 79.8416C70.4361 81.1495 73.1742 82.9898 75.5209 83.9262C87.7583 76.6889 100.818 66.9851 102.627 52.7087C103.099 48.9813 102.526 44.7075 103.157 41.1744C101.89 42.9112 99.7289 45.2409 97.9211 47.0474C94.6267 50.3395 87.3959 59.7084 83.5505 61.6224C81.6709 62.5582 71.0443 62.2138 68.6128 62.2138C68.4863 61.4076 68.451 60.2698 68.3983 59.4329L68.3935 59.3113C68.3407 57.8506 68.3047 52.7913 68.3853 51.6077C68.5984 48.4807 67.8909 25.9959 68.8564 25.0427C70.3838 24.8678 72.6061 24.9513 74.2053 24.9528L82.5066 24.8971C82.7199 26.7408 82.6297 31.6327 82.5984 33.6812C82.5406 37.4594 82.7693 42.9134 82.2754 46.5275C84.2236 45.15 85.081 43.5676 86.6016 41.8164L94.0473 33.4013C98.41 28.3707 100.277 24.748 108.162 24.9554C111.011 25.0303 114.443 24.9354 117.331 24.8732C117.662 28.419 117.285 32.5995 117.374 36.1674C117.699 49.0915 117.982 60.2999 110.223 71.7064C103.607 81.4326 93.6872 89.3406 82.8069 94.9357C80.1916 96.0253 76.7245 98.9635 73.7826 97.6826C59.0124 91.2526 44.3123 81.3367 37.5034 67.2607C35.9002 63.9461 34.3409 60.3231 34.0594 56.6588C33.2071 45.5612 33.5836 34.1931 33.5785 23.0411L33.5602 9.50986C33.5578 7.64349 33.3497 1.47464 33.9697 0Z" fill="black"/>
<path d="M13.96 148.64C11.5867 148.64 9.54667 148.227 7.84 147.4C6.13333 146.573 4.78667 145.427 3.8 143.96C2.84 142.467 2.28 140.733 2.12 138.76L7.4 138.44C7.58667 139.667 7.94667 140.707 8.48 141.56C9.01333 142.413 9.73333 143.067 10.64 143.52C11.5733 143.947 12.7067 144.16 14.04 144.16C15.16 144.16 16.1067 144.027 16.88 143.76C17.68 143.467 18.28 143.053 18.68 142.52C19.1067 141.96 19.32 141.28 19.32 140.48C19.32 139.76 19.1333 139.12 18.76 138.56C18.4133 137.973 17.7467 137.453 16.76 137C15.7733 136.52 14.32 136.053 12.4 135.6C10.0533 135.067 8.16 134.467 6.72 133.8C5.30667 133.107 4.28 132.253 3.64 131.24C3.02667 130.2 2.72 128.907 2.72 127.36C2.72 125.707 3.12 124.253 3.92 123C4.74667 121.72 5.92 120.733 7.44 120.04C8.98667 119.32 10.8267 118.96 12.96 118.96C15.2 118.96 17.1067 119.373 18.68 120.2C20.28 121 21.5333 122.107 22.44 123.52C23.3467 124.933 23.8933 126.56 24.08 128.4L18.84 128.64C18.7333 127.6 18.4267 126.693 17.92 125.92C17.44 125.147 16.7733 124.547 15.92 124.12C15.0933 123.667 14.08 123.44 12.88 123.44C11.36 123.44 10.16 123.787 9.28 124.48C8.42667 125.147 8 126.04 8 127.16C8 127.933 8.18667 128.573 8.56 129.08C8.93333 129.587 9.57333 130.027 10.48 130.4C11.4133 130.747 12.72 131.12 14.4 131.52C16.96 132.053 18.9867 132.733 20.48 133.56C21.9733 134.387 23.0267 135.347 23.64 136.44C24.28 137.533 24.6 138.787 24.6 140.2C24.6 141.933 24.16 143.44 23.28 144.72C22.4 145.973 21.16 146.947 19.56 147.64C17.96 148.307 16.0933 148.64 13.96 148.64ZM35.7988 148.48C33.5854 148.48 31.7854 147.973 30.3988 146.96C29.0388 145.92 28.3588 144.48 28.3588 142.64C28.3588 140.8 28.9321 139.36 30.0788 138.32C31.2254 137.28 32.9721 136.533 35.3188 136.08L42.3988 134.68C42.3988 133.16 42.0521 132.027 41.3588 131.28C40.6654 130.507 39.6521 130.12 38.3188 130.12C37.0654 130.12 36.0788 130.413 35.3588 131C34.6654 131.56 34.1988 132.373 33.9588 133.44L28.7188 133.2C29.1454 130.933 30.1854 129.2 31.8388 128C33.4921 126.773 35.6521 126.16 38.3188 126.16C41.3588 126.16 43.6521 126.933 45.1988 128.48C46.7454 130 47.5188 132.187 47.5188 135.04V142.8C47.5188 143.36 47.6121 143.747 47.7988 143.96C48.0121 144.173 48.3188 144.28 48.7188 144.28H49.3988V148C49.2388 148.053 48.9721 148.093 48.5988 148.12C48.2521 148.147 47.9054 148.16 47.5588 148.16C46.6521 148.16 45.8521 148.027 45.1588 147.76C44.4921 147.467 43.9588 146.973 43.5588 146.28C43.1854 145.56 42.9988 144.587 42.9988 143.36L43.4388 143.68C43.2254 144.613 42.7588 145.453 42.0388 146.2C41.3454 146.92 40.4654 147.48 39.3988 147.88C38.3321 148.28 37.1321 148.48 35.7988 148.48ZM36.8388 144.76C37.9854 144.76 38.9721 144.533 39.7988 144.08C40.6254 143.627 41.2654 143 41.7188 142.2C42.1721 141.4 42.3988 140.453 42.3988 139.36V138.16L36.8788 139.28C35.7588 139.52 34.9454 139.88 34.4388 140.36C33.9321 140.813 33.6788 141.413 33.6788 142.16C33.6788 142.987 33.9454 143.627 34.4788 144.08C35.0388 144.533 35.8254 144.76 36.8388 144.76ZM55.665 148V125.8C55.665 123.88 56.1983 122.373 57.265 121.28C58.3583 120.16 60.025 119.6 62.265 119.6H66.425V123.56H63.225C62.3983 123.56 61.785 123.773 61.385 124.2C61.0117 124.627 60.825 125.253 60.825 126.08V148H55.665ZM52.625 131.16V127.2H66.145V131.16H52.625ZM78.7997 148.48C76.6664 148.48 74.813 148.027 73.2397 147.12C71.693 146.187 70.4797 144.88 69.5997 143.2C68.7464 141.52 68.3197 139.56 68.3197 137.32C68.3197 135.08 68.7464 133.133 69.5997 131.48C70.4797 129.8 71.693 128.493 73.2397 127.56C74.7864 126.627 76.5997 126.16 78.6797 126.16C80.733 126.16 82.5197 126.613 84.0397 127.52C85.5597 128.427 86.733 129.733 87.5597 131.44C88.413 133.147 88.8397 135.2 88.8397 137.6V138.76H73.6397C73.7464 140.627 74.253 142.04 75.1597 143C76.093 143.933 77.3197 144.4 78.8397 144.4C79.9864 144.4 80.933 144.147 81.6797 143.64C82.453 143.107 82.9864 142.373 83.2797 141.44L88.5197 141.76C87.9597 143.84 86.813 145.48 85.0797 146.68C83.3464 147.88 81.253 148.48 78.7997 148.48ZM73.6397 135.32H83.5197C83.413 133.587 82.9197 132.307 82.0397 131.48C81.1597 130.627 80.0397 130.2 78.6797 130.2C77.3197 130.2 76.1864 130.64 75.2797 131.52C74.3997 132.4 73.853 133.667 73.6397 135.32ZM92.9563 148V126.64H97.5963L97.7963 132.64L97.1963 132.4C97.4096 130.907 97.8496 129.707 98.5163 128.8C99.1829 127.893 99.9963 127.227 100.956 126.8C101.916 126.373 102.97 126.16 104.116 126.16C105.69 126.16 107.01 126.507 108.076 127.2C109.17 127.893 109.996 128.853 110.556 130.08C111.116 131.28 111.396 132.68 111.396 134.28V148H106.276V135.92C106.276 134.72 106.156 133.707 105.916 132.88C105.676 132.053 105.276 131.427 104.716 131C104.183 130.547 103.463 130.32 102.556 130.32C101.196 130.32 100.103 130.8 99.2763 131.76C98.4763 132.72 98.0763 134.107 98.0763 135.92V148H92.9563ZM125.792 148.48C123.659 148.48 121.805 148.027 120.232 147.12C118.685 146.187 117.472 144.88 116.592 143.2C115.739 141.52 115.312 139.56 115.312 137.32C115.312 135.08 115.739 133.133 116.592 131.48C117.472 129.8 118.685 128.493 120.232 127.56C121.779 126.627 123.592 126.16 125.672 126.16C127.725 126.16 129.512 126.613 131.032 127.52C132.552 128.427 133.725 129.733 134.552 131.44C135.405 133.147 135.832 135.2 135.832 137.6V138.76H120.632C120.739 140.627 121.245 142.04 122.152 143C123.085 143.933 124.312 144.4 125.832 144.4C126.979 144.4 127.925 144.147 128.672 143.64C129.445 143.107 129.979 142.373 130.272 141.44L135.512 141.76C134.952 143.84 133.805 145.48 132.072 146.68C130.339 147.88 128.245 148.48 125.792 148.48ZM120.632 135.32H130.512C130.405 133.587 129.912 132.307 129.032 131.48C128.152 130.627 127.032 130.2 125.672 130.2C124.312 130.2 123.179 130.64 122.272 131.52C121.392 132.4 120.845 133.667 120.632 135.32ZM147.727 148C145.594 148 144.021 147.507 143.007 146.52C142.021 145.533 141.527 143.987 141.527 141.88V121.64H146.647V141.4C146.647 142.387 146.861 143.08 147.287 143.48C147.714 143.853 148.381 144.04 149.287 144.04H152.287V148H147.727ZM138.167 130.6V126.64H152.287V130.6H138.167Z" fill="black"/>
</svg>
